<?xml version="1.0" encoding="UTF-8" standalone="no"?>
<svg
   xmlns:dc="http://purl.org/dc/elements/1.1/"
   xmlns:cc="http://creativecommons.org/ns#"
   xmlns:rdf="http://www.w3.org/1999/02/22-rdf-syntax-ns#"
   xmlns:svg="http://www.w3.org/2000/svg"
   xmlns="http://www.w3.org/2000/svg"
   viewBox="0 0 377.95825 159.27893"
   height="159.27893"
   width="377.95825"
   xml:space="preserve"
   id="svg3680"
   version="1.1"><metadata
     id="metadata3686"><rdf:RDF><cc:Work
         rdf:about=""><dc:format>image/svg+xml</dc:format><dc:type
           rdf:resource="http://purl.org/dc/dcmitype/StillImage" /><dc:title></dc:title></cc:Work></rdf:RDF></metadata><defs
     id="defs3684"><clipPath
       id="clipPath3696"
       clipPathUnits="userSpaceOnUse"><path
         id="path3694"
         d="M 0,251.467 H 415.935 V 0 H 0 Z" /></clipPath></defs><g
     transform="matrix(1.3333333,0,0,-1.3333333,-88.313598,246.97492)"
     id="g3688"><g
       id="g3690"><g
         clip-path="url(#clipPath3696)"
         id="g3692"><g
           transform="translate(222.9542,70.827)"
           id="g3698"><path
             id="path3700"
             style="fill:#24336b;fill-opacity:1;fill-rule:nonzero;stroke:none"
             d="m 0,0 v 3.104 h 3.247 c 1.196,0 1.646,-0.713 1.646,-1.54 C 4.893,0.727 4.443,0 3.247,0 Z m 5.978,1.564 c 0,1.866 -1.385,2.742 -2.607,2.742 H -1.135 V -4.592 H 0 v 3.404 H 2.461 L 4.78,-4.579 H 6.151 L 3.833,-1.15 c 1.085,0.2 2.145,1.076 2.145,2.714 M -11.881,0 v 3.104 h 3.247 c 1.197,0 1.646,-0.713 1.646,-1.54 C -6.988,0.727 -7.437,0 -8.634,0 Z m 5.978,1.564 c 0,1.866 -1.384,2.742 -2.607,2.742 h -4.506 v -8.898 h 1.135 v 3.404 h 2.461 l 2.319,-3.391 h 1.372 l -2.319,3.429 c 1.085,0.2 2.145,1.076 2.145,2.714 m -16.656,-5.193 c -1.933,0 -3.466,1.552 -3.466,3.492 0,1.94 1.533,3.491 3.466,3.491 1.933,0 3.479,-1.551 3.479,-3.491 0,-1.94 -1.546,-3.492 -3.479,-3.492 m 0,8.147 c -2.494,0 -4.513,-2.089 -4.513,-4.667 0,-2.566 2.019,-4.643 4.513,-4.643 2.506,0 4.526,2.077 4.526,4.643 0,2.578 -2.02,4.667 -4.526,4.667 m -13.742,-5.907 4.739,6.207 v -9.41 h -1.148 v 6.007 l -3.591,-4.756 -3.566,4.756 v -6.007 h -1.159 v 9.41 z m 50.869,-2.24 c -1.932,0 -3.465,1.552 -3.465,3.492 0,1.94 1.533,3.491 3.465,3.491 1.933,0 3.479,-1.551 3.479,-3.491 0,-1.94 -1.546,-3.492 -3.479,-3.492 m 0,8.147 c -2.493,0 -4.513,-2.089 -4.513,-4.667 0,-2.566 2.02,-4.643 4.513,-4.643 2.507,0 4.527,2.077 4.527,4.643 0,2.578 -2.02,4.667 -4.527,4.667 m -64.486,-8.147 c -1.934,0 -3.467,1.552 -3.467,3.492 0,1.94 1.533,3.491 3.467,3.491 1.932,0 3.478,-1.551 3.478,-3.491 0,-1.94 -1.546,-3.492 -3.478,-3.492 m 0,8.147 c -2.495,0 -4.514,-2.089 -4.514,-4.667 0,-2.566 2.019,-4.643 4.514,-4.643 2.506,0 4.525,2.077 4.525,4.643 0,2.578 -2.019,4.667 -4.525,4.667 M 32.801,4.306 h 1.122 L 30.27,-5.055 27.763,1.728 25.257,-5.055 21.616,4.306 h 1.259 l 2.457,-6.345 2.431,6.857 2.507,-6.895 z m -148.619,0 h 7.381 V 3.217 h -3.117 v -7.809 h -1.147 v 7.809 h -3.117 z m 50.387,0 h 7.382 V 3.217 h -3.118 v -7.809 h -1.147 v 7.809 h -3.117 z m -39.206,0 h 7.382 V 3.217 h -3.118 v -7.809 h -1.147 v 7.809 h -3.117 z m -29.46,-7.697 h -2.93 v 2.678 h 2.967 c 0.724,0 1.596,-0.15 1.596,-1.238 0,-1.201 -0.935,-1.44 -1.633,-1.44 m -2.93,6.495 h 2.244 c 0.673,0 1.696,-0.025 1.696,-1.202 0,-0.988 -0.873,-1.425 -1.447,-1.425 h -2.493 z m 4.177,-3.041 c 0.336,0.288 0.848,0.801 0.848,1.852 0,2.052 -1.559,2.391 -2.769,2.391 h -3.391 v -8.898 h 4.09 c 1.222,0 2.693,0.776 2.693,2.678 0,1.252 -0.786,1.702 -1.471,1.977 m 6.357,4.243 h 6.06 V 3.204 h -4.925 V 0.626 h 4.027 v -1.101 h -4.04 v -3.004 h 4.938 v -1.113 h -6.06 z m -27.495,-5.72 1.683,3.68 1.683,-3.667 z m -2.731,-3.178 h 1.247 l 0.985,2.09 4.364,-0.013 0.985,-2.077 h 1.234 l -4.401,9.361 z m 64.078,8.898 h 6.06 V 3.204 h -4.925 V 0.626 h 4.027 v -1.101 h -4.04 v -3.004 h 4.938 v -1.113 h -6.06 z M -80.832,0 v 3.104 h 3.247 c 1.197,0 1.646,-0.713 1.646,-1.54 C -75.939,0.727 -76.388,0 -77.585,0 Z m 5.978,1.564 c 0,1.866 -1.384,2.742 -2.606,2.742 h -4.507 v -8.898 h 1.135 v 3.404 h 2.461 l 2.32,-3.391 h 1.371 l -2.319,3.429 c 1.085,0.2 2.145,1.076 2.145,2.714" /></g><g
           transform="translate(317.6622,144.1375)"
           id="g3702"><path
             id="path3704"
             style="fill:#24336b;fill-opacity:1;fill-rule:nonzero;stroke:none"
             d="m 0,0 c 1.812,-10.01 -4.81,-20.642 -17.176,-30.05 -0.118,-0.09 0.008,-0.268 0.132,-0.187 9.859,6.444 20.299,13.667 27.372,23.257 2.532,3.434 4.668,7.555 5.043,11.871 0.7,8.057 -4.682,15.027 -11.43,18.813 -4.493,2.522 -9.429,4.105 -14.437,5.238 -8.722,1.986 -17.701,2.616 -26.629,2.498 -4.537,-0.059 -9.072,-0.304 -13.59,-0.733 -4.361,-0.414 -8.723,-0.961 -13.038,-1.714 -4.282,-0.748 -8.543,-1.574 -12.768,-2.6 -0.458,-0.112 -0.916,-0.224 -1.374,-0.339 -0.137,-0.035 -0.102,-0.241 0.041,-0.227 C -36.898,29.703 -3.48,19.226 0,0" /></g><g
           transform="translate(281.0235,180.4588)"
           id="g3706"><path
             id="path3708"
             style="fill:#24336b;fill-opacity:1;fill-rule:nonzero;stroke:none"
             d="m 0,0 c -0.142,-0.006 -0.17,0.199 -0.031,0.228 3.153,0.637 6.323,1.2 9.499,1.71 5.053,0.814 10.132,1.49 15.227,1.981 8.766,0.847 17.894,1.353 26.681,0.1 1.974,-0.283 3.934,-0.674 5.853,-1.216 4.786,-1.353 9.693,-3.931 11.017,-9.075 0.865,-3.363 0.339,-6.947 -0.707,-10.204 -2.034,-6.332 -6,-11.981 -10.201,-17.054 -0.261,-0.316 -0.525,-0.629 -0.789,-0.941 -0.084,-0.098 -0.242,-0.007 -0.196,0.115 1.742,4.588 2.503,9.796 1.608,14.649 C 56.64,-12.548 50.928,-7.295 44.512,-4.464 36.724,-1.028 28.153,-0.188 19.733,0.154 13.159,0.423 6.571,0.295 0,0" /></g><g
           transform="translate(184.5704,113.7596)"
           id="g3710"><path
             id="path3712"
             style="fill:#24336b;fill-opacity:1;fill-rule:nonzero;stroke:none"
             d="M 0,0 8.925,-11.778 H -23.276 L -33.469,-25.231 H -48.246 L -2.973,34.521 42.3,-25.231 H 27.522 L -2.973,15.018 -14.352,0 Z M 60.529,12.652 H 72.307 V -25.232 H 60.529 Z m -29.37,18.492 h 70.518 V 19.366 H 31.159 Z M -52.1,-8.193 c 0,-9.395 -7.644,-17.038 -17.039,-17.038 l -49.196,-10e-4 v 10e-4 15.596 h 11.778 v -3.818 h 37.418 c 2.905,0 5.26,2.354 5.26,5.26 0,2.905 -2.355,5.259 -5.26,5.259 h -49.196 V 8.845 l 39.543,10e-4 c 2.904,0 5.259,2.354 5.259,5.259 0,2.906 -2.355,5.26 -5.259,5.26 h -27.765 v -3.818 h -11.778 v 15.597 h 39.543 c 9.395,0 17.038,-7.644 17.038,-17.039 0,-2.265 -0.448,-4.426 -1.254,-6.405 6.374,-2.468 10.908,-8.659 10.908,-15.893" /></g></g></g></g></svg>